# xmcd
#
# Track frame offsets: 
#        150
#        18060
#        28527
#        41580
#        69975
#        88312
#        103377
#        135770
#        148230
#        160162
#        170145
#        184820
#        195080
#        207020
#        222555
#
# Disc length: 3201 seconds
#
# Revision: 6
# Processed by: cddbd v1.5.2PL0 Copyright (c) Steve Scherf et al.
# Submitted via: ExactAudioCopy v1.0b3
#
DISCID=d10c7f0f
DTITLE=Buddy Guy - Buddy's Blues
DYEAR=1997
DGENRE=Blues
TTITLE0=Buddy Guy - Worried Mind
TTITLE1=Buddy Guy - First Time I Met The Blues
TTITLE2=Buddy Guy - Let Me Love You Baby
TTITLE3=Buddy Guy - I Found A True Love
TTITLE4=Buddy Guy - Pretty Baby
TTITLE5=Buddy Guy - My Time After A While
TTITLE6=Buddy Guy - Stone Crazy
TTITLE7=Buddy Guy - Keep It To Myself
TTITLE8=Buddy Guy - Ten Years Ago
TTITLE9=Buddy Guy - Got To Use Your Head
TTITLE10=Buddy Guy - I Cry And Sing The Blues
TTITLE11=Buddy Guy - She Suits Me To A Tee
TTITLE12=Buddy Guy - My Love Is Real
TTITLE13=Buddy Guy - Leave My Girl Alone
TTITLE14=Buddy Guy - When My Left Eye Jumps
EXTD=
EXTT0=
EXTT1=
EXTT2=
EXTT3=
EXTT4=
EXTT5=
EXTT6=
EXTT7=
EXTT8=
EXTT9=
EXTT10=
EXTT11=
EXTT12=
EXTT13=
EXTT14=
PLAYORDER=
